<svg xmlns="http://www.w3.org/2000/svg" xmlns:xlink="http://www.w3.org/1999/xlink" width="138" zoomAndPan="magnify" viewBox="0 0 103.5 99.749997" height="133" preserveAspectRatio="xMidYMid meet" version="1.0"><defs><g/><clipPath id="a44a603760"><path d="M 9.644531 9.011719 L 93.34375 9.011719 L 93.34375 93.691406 L 9.644531 93.691406 Z M 9.644531 9.011719 " clip-rule="nonzero"/></clipPath><clipPath id="74b47cceeb"><path d="M 13.375 9.011719 L 89.609375 9.011719 C 90.601562 9.011719 91.550781 9.40625 92.25 10.105469 C 92.949219 10.804688 93.34375 11.753906 93.34375 12.746094 L 93.34375 89.804688 C 93.34375 90.796875 92.949219 91.746094 92.25 92.445312 C 91.550781 93.144531 90.601562 93.539062 89.609375 93.539062 L 13.375 93.539062 C 12.386719 93.539062 11.4375 93.144531 10.734375 92.445312 C 10.035156 91.746094 9.644531 90.796875 9.644531 89.804688 L 9.644531 12.746094 C 9.644531 11.753906 10.035156 10.804688 10.734375 10.105469 C 11.4375 9.40625 12.386719 9.011719 13.375 9.011719 Z M 13.375 9.011719 " clip-rule="nonzero"/></clipPath><clipPath id="1af20bdd7b"><path d="M 9.644531 9.011719 L 93.238281 9.011719 L 93.238281 93.355469 L 9.644531 93.355469 Z M 9.644531 9.011719 " clip-rule="nonzero"/></clipPath><clipPath id="2655872ccc"><path d="M 13.375 9.011719 L 89.601562 9.011719 C 90.589844 9.011719 91.539062 9.40625 92.238281 10.105469 C 92.941406 10.804688 93.332031 11.753906 93.332031 12.746094 L 93.332031 89.796875 C 93.332031 90.785156 92.941406 91.734375 92.238281 92.4375 C 91.539062 93.136719 90.589844 93.527344 89.601562 93.527344 L 13.375 93.527344 C 12.386719 93.527344 11.4375 93.136719 10.734375 92.4375 C 10.035156 91.734375 9.644531 90.785156 9.644531 89.796875 L 9.644531 12.746094 C 9.644531 11.753906 10.035156 10.804688 10.734375 10.105469 C 11.4375 9.40625 12.386719 9.011719 13.375 9.011719 Z M 13.375 9.011719 " clip-rule="nonzero"/></clipPath></defs><g clip-path="url(#a44a603760)"><g clip-path="url(#74b47cceeb)"><path fill="#545454" d="M 9.644531 9.011719 L 93.34375 9.011719 L 93.34375 93.691406 L 9.644531 93.691406 Z M 9.644531 9.011719 " fill-opacity="1" fill-rule="nonzero"/></g></g><g clip-path="url(#1af20bdd7b)"><g clip-path="url(#2655872ccc)"><path stroke-linecap="butt" transform="matrix(0.746394, 0, 0, 0.746394, 9.643234, 9.013129)" fill="none" stroke-linejoin="miter" d="M 4.999726 -0.00188945 L 107.126139 -0.00188945 C 108.450213 -0.00188945 109.721952 0.526694 110.658748 1.463489 C 111.600777 2.400285 112.124126 3.672024 112.124126 5.001331 L 112.124126 108.232012 C 112.124126 109.556086 111.600777 110.827825 110.658748 111.769854 C 109.721952 112.70665 108.450213 113.229999 107.126139 113.229999 L 4.999726 113.229999 C 3.675652 113.229999 2.403912 112.70665 1.461883 111.769854 C 0.525088 110.827825 0.00173844 109.556086 0.00173844 108.232012 L 0.00173844 5.001331 C 0.00173844 3.672024 0.525088 2.400285 1.461883 1.463489 C 2.403912 0.526694 3.675652 -0.00188945 4.999726 -0.00188945 Z M 4.999726 -0.00188945 " stroke="#545454" stroke-width="8" stroke-opacity="1" stroke-miterlimit="4"/></g></g><g fill="#ffffff" fill-opacity="1"><g transform="translate(22.329561, 50.340056)"><g><path d="M 24.828125 -22.859375 L 16.171875 -22.859375 L 16.171875 0 L 8.859375 0 L 8.859375 -22.859375 L 0.28125 -22.859375 L 0.28125 -28.765625 L 24.828125 -28.765625 Z M 24.828125 -22.859375 "/></g></g></g><g fill="#ffffff" fill-opacity="1"><g transform="translate(47.603096, 50.340056)"><g><path d="M 16.5 -28.96875 C 20.957031 -28.96875 24.660156 -27.578125 27.609375 -24.796875 C 30.566406 -22.023438 32.046875 -18.5625 32.046875 -14.40625 C 32.046875 -10.21875 30.5625 -6.710938 27.59375 -3.890625 C 24.625 -1.078125 20.921875 0.328125 16.484375 0.328125 C 12.054688 0.328125 8.363281 -1.070312 5.40625 -3.875 C 2.457031 -6.675781 0.984375 -10.1875 0.984375 -14.40625 C 0.984375 -18.59375 2.457031 -22.066406 5.40625 -24.828125 C 8.363281 -27.585938 12.0625 -28.96875 16.5 -28.96875 Z M 16.578125 -22.859375 C 14.335938 -22.859375 12.421875 -22.039062 10.828125 -20.40625 C 9.242188 -18.78125 8.453125 -16.765625 8.453125 -14.359375 C 8.453125 -11.953125 9.25 -9.921875 10.84375 -8.265625 C 12.445312 -6.609375 14.359375 -5.78125 16.578125 -5.78125 C 18.796875 -5.78125 20.675781 -6.609375 22.21875 -8.265625 C 23.757812 -9.921875 24.53125 -11.953125 24.53125 -14.359375 C 24.53125 -16.765625 23.757812 -18.78125 22.21875 -20.40625 C 20.675781 -22.039062 18.796875 -22.859375 16.578125 -22.859375 Z M 16.578125 -22.859375 "/></g></g></g><g fill="#ffffff" fill-opacity="1"><g transform="translate(19.134061, 80.942218)"><g><path d="M 2.875 -28.71875 L 15.21875 -28.71875 C 19.738281 -28.71875 23.410156 -27.390625 26.234375 -24.734375 C 29.066406 -22.085938 30.484375 -18.628906 30.484375 -14.359375 C 30.484375 -10.117188 29.046875 -6.664062 26.171875 -4 C 23.304688 -1.332031 19.5625 0 14.9375 0 L 2.875 0 Z M 10.171875 -22.890625 L 10.171875 -5.828125 L 15.390625 -5.828125 C 17.628906 -5.828125 19.46875 -6.613281 20.90625 -8.1875 C 22.34375 -9.757812 23.0625 -11.800781 23.0625 -14.3125 C 23.0625 -16.832031 22.304688 -18.890625 20.796875 -20.484375 C 19.296875 -22.085938 17.382812 -22.890625 15.0625 -22.890625 Z M 10.171875 -22.890625 "/></g></g></g><g fill="#ffffff" fill-opacity="1"><g transform="translate(50.808037, 80.942218)"><g><path d="M 16.5 -28.96875 C 20.957031 -28.96875 24.660156 -27.578125 27.609375 -24.796875 C 30.566406 -22.023438 32.046875 -18.5625 32.046875 -14.40625 C 32.046875 -10.21875 30.5625 -6.710938 27.59375 -3.890625 C 24.625 -1.078125 20.921875 0.328125 16.484375 0.328125 C 12.054688 0.328125 8.363281 -1.070312 5.40625 -3.875 C 2.457031 -6.675781 0.984375 -10.1875 0.984375 -14.40625 C 0.984375 -18.59375 2.457031 -22.066406 5.40625 -24.828125 C 8.363281 -27.585938 12.0625 -28.96875 16.5 -28.96875 Z M 16.578125 -22.859375 C 14.335938 -22.859375 12.421875 -22.039062 10.828125 -20.40625 C 9.242188 -18.78125 8.453125 -16.765625 8.453125 -14.359375 C 8.453125 -11.953125 9.25 -9.921875 10.84375 -8.265625 C 12.445312 -6.609375 14.359375 -5.78125 16.578125 -5.78125 C 18.796875 -5.78125 20.675781 -6.609375 22.21875 -8.265625 C 23.757812 -9.921875 24.53125 -11.953125 24.53125 -14.359375 C 24.53125 -16.765625 23.757812 -18.78125 22.21875 -20.40625 C 20.675781 -22.039062 18.796875 -22.859375 16.578125 -22.859375 Z M 16.578125 -22.859375 "/></g></g></g></svg>